<svg xmlns="http://www.w3.org/2000/svg" >
	<symbol id="dots" viewBox='0 0 15 15' width='15' height='15'>
		<g>
			<ellipse cx='2.5' cy='7.5' rx='1.5' ry='1.5'/><ellipse cx='7.5' cy='7.5' rx='1.5' ry='1.5'/><ellipse cx='12.5' cy='7.5' rx='1.5' ry='1.5'/>
		</g>
	</symbol>
	<symbol id="dots-vert" viewBox='0 0 15 15' width='16' height='16'>
		<g>
			<path d='M8 4.5a1.5 1.5 0 1 1 0-3 1.5 1.5 0 0 1 0 3zm0 5a1.5 1.5 0 1 1 0-3 1.5 1.5 0 0 1 0 3zm0 5a1.5 1.5 0 1 1 0-3 1.5 1.5 0 0 1 0 3z' fill-rule='evenodd'/>
		</g>
	</symbol>
	<symbol id="micro" viewBox="0 0 18 18">
		<g>
			<path d="M9 11.25c1.242 0 2.25-1.008 2.25-2.25v-3.938c0-1.242-1.008-2.25-2.25-2.25s-2.25 1.008-2.25 2.25v3.938c0 1.242 1.008 2.25 2.25 2.25zm4.5-2.25h-1.125c0 .848-.32 1.668-.898 2.289-.637.691-1.535 1.086-2.477 1.086-.941 0-1.84-.395-2.477-1.082-.578-.625-.898-1.441-.898-2.293h-1.125c0 1.137.426 2.223 1.195 3.055.723.777 1.691 1.273 2.742 1.406v1.727h1.125v-1.727c1.051-.133 2.02-.629 2.742-1.406.77-.832 1.195-1.922 1.195-3.055zm0 0" fill-rule="evenodd"/>
		</g>
	</symbol>
	<symbol id="keyboard"	>
		<g>
			<path opacity='.3' fill-rule='evenodd' clip-rule='evenodd' d='M25.693 0h-24.153c-1.104 0-1.527.422-1.527 1.527v8.961c0 1.105.423 1.527 1.527 1.527h24.153c1.104 0 1.307-.422 1.307-1.527v-8.961c0-1.105-.202-1.527-1.307-1.527zm-2.672 2.061h1.935v1.934h-1.935v-1.934zm-6 0h1.935v1.934h-1.935v-1.934zm2.935 3v1.934h-1.935v-1.934h1.935zm-5.935-3h1.935v1.934h-1.935v-1.934zm2.935 3v1.934h-1.935v-1.934h1.935zm-5.935-3h1.935v1.934h-1.935v-1.934zm2.935 3v1.934h-1.935v-1.934h1.935zm-5.935-3h1.935v1.934h-1.935v-1.934zm2.935 3v1.934h-1.935v-1.934h1.935zm-5.935-3h1.935v1.934h-1.935v-1.934zm-3 0h1.935v1.934h-1.935v-1.934zm0 3h2.994v1.934h-2.994v-1.934zm3.95 4.933h-3.978v-1.933h3.978v1.933zm.05-4.933h1.935v1.934h-1.935v-1.934zm13.95 4.933h-12.963v-1.933h12.963v1.933zm.05-7.933h1.935v1.934h-1.935v-1.934zm4.95 7.933h-3.978v-1.933h3.978v1.933zm.029-2.999h-3.979v-1.934h3.979v1.934z'/>
		</g>
	</symbol>
</svg>