<svg xmlns="http://www.w3.org/2000/svg" >
	<symbol id="dots">
		<g>
			<ellipse cx='2.5' cy='7.5' rx='1.5' ry='1.5'/><ellipse cx='7.5' cy='7.5' rx='1.5' ry='1.5'/><ellipse cx='12.5' cy='7.5' rx='1.5' ry='1.5'/>
		</g>
	</symbol>
	<symbol id="dots-vert">
		<g>
			<path d='M8 4.5a1.5 1.5 0 1 1 0-3 1.5 1.5 0 0 1 0 3zm0 5a1.5 1.5 0 1 1 0-3 1.5 1.5 0 0 1 0 3zm0 5a1.5 1.5 0 1 1 0-3 1.5 1.5 0 0 1 0 3z' fill-rule='evenodd'/>
		</g>
	</symbol>
	<symbol id="micro" viewBox="0 0 18 18">
		<g>
			<path d="M9 11.25c1.242 0 2.25-1.008 2.25-2.25v-3.938c0-1.242-1.008-2.25-2.25-2.25s-2.25 1.008-2.25 2.25v3.938c0 1.242 1.008 2.25 2.25 2.25zm4.5-2.25h-1.125c0 .848-.32 1.668-.898 2.289-.637.691-1.535 1.086-2.477 1.086-.941 0-1.84-.395-2.477-1.082-.578-.625-.898-1.441-.898-2.293h-1.125c0 1.137.426 2.223 1.195 3.055.723.777 1.691 1.273 2.742 1.406v1.727h1.125v-1.727c1.051-.133 2.02-.629 2.742-1.406.77-.832 1.195-1.922 1.195-3.055zm0 0" fill-rule="evenodd"/>
		</g>
	</symbol>
	<symbol id="keyboard">
		<g>
			<path fill-rule='evenodd' clip-rule='evenodd' d='M25.693 0h-24.153c-1.104 0-1.527.422-1.527 1.527v8.961c0 1.105.423 1.527 1.527 1.527h24.153c1.104 0 1.307-.422 1.307-1.527v-8.961c0-1.105-.202-1.527-1.307-1.527zm-2.672 2.061h1.935v1.934h-1.935v-1.934zm-6 0h1.935v1.934h-1.935v-1.934zm2.935 3v1.934h-1.935v-1.934h1.935zm-5.935-3h1.935v1.934h-1.935v-1.934zm2.935 3v1.934h-1.935v-1.934h1.935zm-5.935-3h1.935v1.934h-1.935v-1.934zm2.935 3v1.934h-1.935v-1.934h1.935zm-5.935-3h1.935v1.934h-1.935v-1.934zm2.935 3v1.934h-1.935v-1.934h1.935zm-5.935-3h1.935v1.934h-1.935v-1.934zm-3 0h1.935v1.934h-1.935v-1.934zm0 3h2.994v1.934h-2.994v-1.934zm3.95 4.933h-3.978v-1.933h3.978v1.933zm.05-4.933h1.935v1.934h-1.935v-1.934zm13.95 4.933h-12.963v-1.933h12.963v1.933zm.05-7.933h1.935v1.934h-1.935v-1.934zm4.95 7.933h-3.978v-1.933h3.978v1.933zm.029-2.999h-3.979v-1.934h3.979v1.934z'/>
		</g>
	</symbol>
	<symbol id="geo" viewBox="0 0 16 16">
		<g>
			<path d="M13.07 3.58l-4 9.98a.5.5 0 0 1-.95-.06L7 9 2.5 7.88a.5.5 0 0 1-.06-.95l9.98-4a.5.5 0 0 1 .65.65z"></path>
		</g>
	</symbol>
	<symbol id="bell">
		<g>
			<path d="M18 30a3 3 0 0 0 3-3c0-1.657-1.5 0-3-17-1.5 17-3 15.343-3 17a3 3 0 0 0 3 3z"></path><path d="M15.687 12.5l.3-.164a1.5 1.5 0 0 0 .75-1.021l.142-.712a.75.75 0 0 1 .736-.603h.77a.75.75 0 0 1 .736.603l.142.712a1.5 1.5 0 0 0 .75 1.02l.3.165a5.586 5.586 0 0 1 3.24 4.47l.54 4.863c.1.906.563 1.733 1.282 2.292l.354.275a1.5 1.5 0 0 1 .534 1.548L26.25 26a1.32 1.32 0 0 1-1.28 1H11.03a1.32 1.32 0 0 1-1.28-1l-.013-.052a1.5 1.5 0 0 1 .534-1.548l.354-.275a3.375 3.375 0 0 0 1.282-2.292l.54-4.864a5.586 5.586 0 0 1 3.24-4.469z"></path>
		</g>
	</symbol>
	<symbol id="truck">
		<g>
			<path d='M20.68 5.55H6.48l-.46-1.68a2.2 2.2 0 0 0-2.13-1.62H1.43a1.1 1.1 0 1 0 0 2.2H3.9l2.82 10.33a2.2 2.2 0 0 0 2.48 1.6l11.3-1.9a2.2 2.2 0 0 0 0.84-2.16V7.2c0-.91-.74-1.65-1.65-1.65zM5.83 22.05a2.2 2.2 0 1 0 0-4.4 2.2 2.2 0 0 0 0 4.4zm11 0a2.2 2.2 0 1 0 0-4.4 2.2 2.2 0 0 0 0 4.4z'/>
		</g>
	</symbol>
	<symbol id="traffic" viewBox="0 0 34 31">
		<g>
			<g fill="none" fill-rule="evenodd"><path d="M28.833 17.404c.027-.37 0-1.506 0-1.882 0-8.254-6.681-14.944-14.922-14.944-4.065 0-7.716 1.66-10.44 4.264C1.024 7.18.001 10.58.001 12.962c0 3.046 1.89 4.442 3.465 4.442h25.367z" fill="#5f9034"/><path d="M33 15c0 7.965-6.458 14.422-14.422 14.422-7.965 0-14.423-6.457-14.423-14.422C4.155 7.034 10.613.578 18.577.578 26.543.578 33 7.034 33 15z" fill="#76b342"/><path d="M18.323.58l.254-.002C26.542.578 33 7.034 33 15c0 .572-.034 1.137-.099 1.692-2.3-.014-4.073-.994-4.653-3.75-1.092-5.193-4.832-9.635-9.904-11.474a15.41 15.41 0 0 0-2.451-.642h.002a15.791 15.791 0 0 0-2.51-.246h4.938z" fill="#333"/></g>
		</g>
	</symbol>
	<symbol id="yandex-icon">
		<g>
			<path d="M2.04 12c0-5.523 4.476-10 10-10 5.522 0 10 4.477 10 10s-4.478 10-10 10c-5.524 0-10-4.477-10-10z" fill="#FC3F1D"/><path d="M13.32 7.666h-.924c-1.694 0-2.585.858-2.585 2.123 0 1.43.616 2.1 1.881 2.959l1.045.704-3.003 4.487H7.49l2.695-4.014c-1.55-1.111-2.42-2.19-2.42-4.015 0-2.288 1.595-3.85 4.62-3.85h3.003v11.868H13.32V7.666z" fill="#fff"/>
		</g>
	</symbol>
	<symbol id="inbox">
		<g>
			<path fill-rule="evenodd" clip-rule="evenodd" d="M2.25 5.125h19.5v13.75H2.25V5.125z" fill="#FFDA3E"/><path fill-rule="evenodd" clip-rule="evenodd" d="M12 9.054l-9.75 9.821h19.5L12 9.054z" fill="#FC0"/><path fill-rule="evenodd" clip-rule="evenodd" d="M21.75 5.125l-8.733 7.959a1.522 1.522 0 0 1-2.033 0L2.25 5.125h19.5z" fill="#F33"/>
		</g>
	</symbol>
	<symbol id="yandex-disk">
		<g>
			<path d="M5.408 12.449c.992 2.07 4.326 2.556 7.447 1.086 3.122-1.47 4.849-4.338 3.857-6.407-.17-.354.2-1.657-.226-1.63-1.07.071-1.702-.214-2.487-.463a7.013 7.013 0 0 0-5.048.352 6.954 6.954 0 0 0-3.197 3.07c-.48.925-.883 2.006-1.504 2.62-.314.31.983 1.005 1.158 1.372z" fill="#000"/><path d="M2.14 16.4c1.368 2.856 21.095-6.43 19.727-9.286-.887-1.852-6.617-2.514-12.064.05C4.356 9.728 1.067 14.16 2.14 16.4z" fill="#000"/><path d="M2.192 16.507c.883 1.845 6.464 2.197 11.911-.367 5.448-2.564 8.699-7.074 7.815-8.918-.883-1.845-6.085-1.406-11.532 1.158-5.448 2.565-9.078 6.283-8.194 8.127z" fill="#07F"/><path d="M8.09 15.57c.42.876 2.857.599 5.444-.619 2.587-1.218 4.344-2.915 3.924-3.791-.42-.876-2.857-.599-5.444.619-2.587 1.218-4.344 2.915-3.924 3.791z" fill="#fff"/>
		</g>
	</symbol>
	<symbol id="covid-histogram">
		<g>
			<rect x="0" y="36.7%" width="2" height="63.3%" rx="1.5" ry="1.5" fill="#ee924f"></rect><rect x="3" y="18.6%" width="2" height="81.4%" rx="1.5" ry="1.5" fill="#d1352b"></rect><rect x="6" y="14.2%" width="2" height="85.8%" rx="1.5" ry="1.5" fill="#d1352b"></rect><rect x="9" y="15.1%" width="2" height="84.9%" rx="1.5" ry="1.5" fill="#d1352b"></rect><rect x="12" y="2.6%" width="2" height="97.4%" rx="1.5" ry="1.5" fill="#a2202c"></rect><rect x="15" y="31.5%" width="2" height="68.5%" rx="1.5" ry="1.5" fill="#ee924f"></rect><rect x="18" y="3.9%" width="2" height="96.1%" rx="1.5" ry="1.5" fill="#a2202c"></rect><rect x="21" y="25.5%" width="2" height="74.5%" rx="1.5" ry="1.5" fill="#e95b3b"></rect><rect x="24" y="24.6%" width="2" height="75.4%" rx="1.5" ry="1.5" fill="#e95b3b"></rect><rect x="27" y="26.2%" width="2" height="73.8%" rx="1.5" ry="1.5" fill="#e95b3b"></rect><rect x="30" y="24.1%" width="2" height="75.9%" rx="1.5" ry="1.5" fill="#e95b3b"></rect><rect x="33" y="23.1%" width="2" height="76.9%" rx="1.5" ry="1.5" fill="#e95b3b"></rect><rect x="36" y="14.4%" width="2" height="85.6%" rx="1.5" ry="1.5" fill="#d1352b"></rect><rect x="39" y="0.0%" width="2" height="100.0%" rx="1.5" ry="1.5" fill="#a2202c"></rect>
		</g>
	</symbol>
	<symbol id="cross" viewBox="0 0 24 24">
		<g>
			<path d="M16.9 7.9l-.8-.8-4.1 4-4.1-4-.8.8 4 4.1-4 4.1.8.8 4.1-4 4.1 4 .8-.8-4-4.1z"/>
		</g>
	</symbol>
</svg>
