<svg width="44" height="44" fill="none" xmlns="http://www.w3.org/2000/svg"><path fill-rule="evenodd" clip-rule="evenodd" d="M25.1 25.1c-2.53 2.58-2.7 5.81-2.92 12.9 6.6 0 11.16-.02 13.5-2.31 2.3-2.35 2.32-7.13 2.32-13.51-7.08.21-10.32.39-12.9 2.91zM6 22.17c0 6.38.02 11.16 2.31 13.5 2.35 2.3 6.92 2.32 13.51 2.32-.21-7.09-.39-10.32-2.91-12.9-2.58-2.53-5.82-2.71-12.91-2.92zM21.82 6c-6.6 0-11.16.02-13.5 2.31C6.01 10.66 6 15.44 6 21.82c7.09-.21 10.33-.39 12.91-2.91 2.52-2.59 2.7-5.82 2.91-12.91zm3.27 12.9c-2.52-2.58-2.7-5.81-2.91-12.9 6.6 0 11.16.02 13.5 2.31 2.3 2.35 2.32 7.13 2.32 13.51-7.08-.21-10.32-.39-12.9-2.91z" fill="url(#paint0_linear)"/><path fill-rule="evenodd" clip-rule="evenodd" d="M38 22.18v-.36c-7.08-.21-10.32-.39-12.9-2.91-2.53-2.58-2.7-5.82-2.92-12.9h-.36c-.21 7.08-.39 10.32-2.91 12.9-2.59 2.52-5.83 2.7-12.91 2.91v.36c7.08.21 10.32.39 12.9 2.91 2.53 2.59 2.7 5.83 2.92 12.91h.36c.21-7.08.39-10.32 2.91-12.9 2.59-2.53 5.83-2.7 12.91-2.92z" fill="#fff"/><defs><linearGradient id="paint0_linear" x1="38" y1="38" x2="38" y2="6" gradientUnits="userSpaceOnUse"><stop stop-color="#191B26"/><stop offset=".5" stop-color="#191B26"/><stop offset="1" stop-color="#2E313B"/><stop offset="1" stop-color="#2E313B"/></linearGradient></defs></svg>